<?xml version="1.0" encoding="UTF-8" standalone="no"?>
<!-- Created with Inkscape (http://www.inkscape.org/) -->

<svg
   xmlns:dc="http://purl.org/dc/elements/1.1/"
   xmlns:cc="http://creativecommons.org/ns#"
   xmlns:rdf="http://www.w3.org/1999/02/22-rdf-syntax-ns#"
   xmlns:svg="http://www.w3.org/2000/svg"
   xmlns="http://www.w3.org/2000/svg"
   xmlns:sodipodi="http://sodipodi.sourceforge.net/DTD/sodipodi-0.dtd"
   xmlns:inkscape="http://www.inkscape.org/namespaces/inkscape"
   width="33.283848mm"
   height="10.364867mm"
   viewBox="0 0 33.283848 10.364867"
   version="1.1"
   id="svg8"
   inkscape:version="0.92.5 (2060ec1f9f, 2020-04-08)"
   sodipodi:docname="logo.svg">
  <defs
     id="defs2" />
  <sodipodi:namedview
     id="base"
     pagecolor="#ffffff"
     bordercolor="#666666"
     borderopacity="1.0"
     inkscape:pageopacity="0.0"
     inkscape:pageshadow="2"
     inkscape:zoom="1.979899"
     inkscape:cx="109.37845"
     inkscape:cy="-6.5978437"
     inkscape:document-units="mm"
     inkscape:current-layer="layer1"
     showgrid="false"
     fit-margin-top="0"
     fit-margin-left="0"
     fit-margin-right="0"
     fit-margin-bottom="0"
     inkscape:window-width="1920"
     inkscape:window-height="1016"
     inkscape:window-x="0"
     inkscape:window-y="27"
     inkscape:window-maximized="1" />
  <metadata
     id="metadata5">
    <rdf:RDF>
      <cc:Work
         rdf:about="">
        <dc:format>image/svg+xml</dc:format>
        <dc:type
           rdf:resource="http://purl.org/dc/dcmitype/StillImage" />
        <dc:title></dc:title>
      </cc:Work>
    </rdf:RDF>
  </metadata>
  <g
     inkscape:label="Layer 1"
     inkscape:groupmode="layer"
     id="layer1"
     transform="translate(-89.417788,-115.71938)">
    <text
       xml:space="preserve"
       style="font-style:normal;font-weight:normal;font-size:10.58333302px;line-height:1.25;font-family:sans-serif;letter-spacing:0px;word-spacing:0px;fill:#9c9c92;fill-opacity:1;stroke:none;stroke-width:0.26458332"
       x="102.05357"
       y="124.64285"
       id="text817"><tspan
         sodipodi:role="line"
         id="tspan815"
         x="102.05357"
         y="124.64285"
         style="font-style:normal;font-variant:normal;font-weight:normal;font-stretch:normal;font-family:sans-serif;-inkscape-font-specification:sans-serif;fill:#9c9c92;fill-opacity:1;stroke-width:0.26458332">の実</tspan></text>
    <g
       transform="matrix(8.8961795,0,0,8.8961795,-1891.6831,-461.37401)"
       id="page1"
       style="fill:#9c9c92;fill-opacity:1">
      <path
         inkscape:connector-curvature="0"
         id="use1494"
         d="m 223.31852,65.02269 h 0.29786 c -0.087,0.39012 -0.11071,0.503465 -0.11071,0.680074 0,0.03954 0,0.110709 0.0211,0.200332 0.0264,0.115981 0.0554,0.131797 0.0949,0.131797 0.0527,0 0.10808,-0.04745 0.10808,-0.100166 0,-0.01582 0,-0.02109 -0.0158,-0.05799 -0.0764,-0.189788 -0.0764,-0.361125 -0.0764,-0.43493 0,-0.139705 0.0185,-0.282049 0.0474,-0.419116 h 0.3005 c 0.0343,0 0.12916,0 0.12916,-0.08962 0,-0.06327 -0.0554,-0.06327 -0.10544,-0.06327 h -0.88304 c -0.058,0 -0.15816,0 -0.27414,0.123891 -0.0923,0.102801 -0.16079,0.224054 -0.16079,0.237233 0,0.0026 0,0.02636 0.0316,0.02636 0.0211,0 0.0264,-0.01054 0.0422,-0.03163 0.12916,-0.202968 0.28205,-0.202968 0.33477,-0.202968 h 0.15025 c -0.0844,0.318948 -0.2267,0.637898 -0.33741,0.87777 -0.0211,0.03954 -0.0211,0.04481 -0.0211,0.06326 0,0.05008 0.0422,0.07117 0.0764,0.07117 0.0791,0 0.10017,-0.07381 0.1318,-0.171336 0.0369,-0.121254 0.0369,-0.126526 0.0712,-0.258323 z"
         style="fill:#9c9c92;fill-opacity:1;stroke-width:0.26458332" />
    </g>
  </g>
</svg>
